<svg width="20" height="20" viewBox="0 0 639 684" fill="none" xmlns="http://www.w3.org/2000/svg">
<path d="M237.652 564.756C89.329 609.253 89.329 490.595 30 475.762M445.303 653.749V538.948C446.416 524.803 444.505 510.583 439.697 497.233C434.889 483.884 427.295 471.711 417.418 461.523C510.565 451.141 608.458 415.84 608.458 253.872C608.45 212.455 592.519 172.627 563.961 142.63C577.484 106.395 576.528 66.3432 561.291 30.7948C561.291 30.7948 526.287 20.4122 445.303 74.6983C377.312 56.2713 305.642 56.2713 237.652 74.6983C156.667 20.4122 121.663 30.7948 121.663 30.7948C106.427 66.3432 105.471 106.395 118.994 142.63C90.2227 172.849 74.2749 213.038 74.4968 254.762C74.4968 415.543 172.39 450.844 265.536 462.413C255.776 472.498 248.25 484.525 243.445 497.712C238.641 510.898 236.667 524.948 237.652 538.948V653.749" stroke="#cbd5e1"  stroke-width="59.329" stroke-linecap="round" stroke-linejoin="round"/>
</svg>
