<svg width="20" height="20" viewBox="0 0 408 430" fill="none" xmlns="http://www.w3.org/2000/svg">
<path d="M143.354 402.123V336.7C143.354 320.059 156.92 306.538 173.728 306.426H235.298C252.187 306.426 265.877 319.98 265.877 336.7V402.326C265.874 416.455 277.264 428.002 291.531 428.333H332.578C373.496 428.333 406.667 395.494 406.667 354.986V168.874C406.448 152.938 398.89 137.973 386.143 128.238L245.765 16.2864C221.172 -3.20658 186.212 -3.20658 161.62 16.2864L21.8565 128.441C9.06152 138.136 1.49091 153.126 1.33333 169.077V354.986C1.33333 395.494 34.504 428.333 75.4221 428.333H116.469C131.09 428.333 142.943 416.599 142.943 402.123" stroke="white" stroke-width="20" stroke-linecap="round" stroke-linejoin="round"/>
</svg>
