<svg width="20" height="20" viewBox="0 0 579 579" fill="none" xmlns="http://www.w3.org/2000/svg">
<path d="M482.048 530.254H441.797C429.013 530.254 416.752 525.175 407.711 516.135C398.671 507.095 393.593 494.834 393.593 482.049V352.619C393.808 347.543 392.274 342.547 389.246 338.467C386.219 334.386 381.882 331.469 376.962 330.204C374.099 329.768 371.176 329.951 368.391 330.741C365.605 331.531 363.021 332.91 360.813 334.783C358.541 336.712 356.717 339.112 355.468 341.818C354.219 344.524 353.576 347.47 353.583 350.45V482.049C353.583 494.834 348.504 507.095 339.464 516.135C330.423 525.175 318.162 530.254 305.378 530.254H265.127C252.342 530.254 240.081 525.175 231.041 516.135C222.001 507.095 216.922 494.834 216.922 482.049V350.45C216.922 329.876 220.974 309.504 228.847 290.496C236.721 271.489 248.26 254.218 262.808 239.67C277.356 225.123 294.627 213.583 313.634 205.71C332.642 197.836 353.014 193.784 373.588 193.784C394.161 193.784 414.533 197.836 433.541 205.71C452.548 213.583 469.819 225.123 484.367 239.67C498.915 254.218 510.455 271.489 518.328 290.496C526.201 309.504 530.253 329.876 530.253 350.45V482.049C530.253 494.834 525.174 507.095 516.134 516.135C507.094 525.175 494.833 530.254 482.048 530.254ZM373.588 281.758C377.36 281.52 381.143 281.52 384.916 281.758C401.097 284.871 415.666 293.581 426.067 306.362C436.468 319.143 442.037 335.178 441.797 351.655V482.049H482.048V350.45C482.048 321.684 470.621 294.097 450.281 273.756C429.941 253.416 402.353 241.989 373.588 241.989C344.822 241.989 317.234 253.416 296.894 273.756C276.554 294.097 265.127 321.684 265.127 350.45V482.049H305.378V350.45C305.377 332.315 312.548 314.915 325.326 302.047C338.105 289.179 355.453 281.885 373.588 281.758Z" fill="#cbd5e1"/>
<path d="M144.614 530.253H96.4094C83.6247 530.253 71.3636 525.174 62.3235 516.134C53.2833 507.094 48.2046 494.833 48.2046 482.048V241.024C48.2046 228.239 53.2833 215.978 62.3235 206.938C71.3636 197.898 83.6247 192.819 96.4094 192.819H144.614C157.399 192.819 169.66 197.898 178.7 206.938C187.74 215.978 192.819 228.239 192.819 241.024V482.048C192.819 494.833 187.74 507.094 178.7 516.134C169.66 525.174 157.399 530.253 144.614 530.253ZM96.4094 241.024V482.048H144.614V241.024H96.4094Z" fill="#cbd5e1"/>
<path d="M120.512 168.717C106.211 168.717 92.231 164.476 80.3401 156.531C68.4492 148.586 59.1814 137.293 53.7087 124.081C48.2359 110.868 46.804 96.3296 49.594 82.3034C52.384 68.2771 59.2706 55.3932 69.3829 45.2809C79.4953 35.1685 92.3792 28.2819 106.405 25.4919C120.432 22.7019 134.97 24.1339 148.183 29.6066C161.395 35.0794 172.688 44.3472 180.633 56.2381C188.578 68.1289 192.819 82.1088 192.819 96.4098C192.819 115.587 185.201 133.978 171.641 147.539C158.081 161.099 139.689 168.717 120.512 168.717ZM120.512 72.3074C115.745 72.3074 111.085 73.721 107.121 76.3694C103.158 79.0178 100.068 82.7821 98.2441 87.1862C96.4199 91.5903 95.9426 96.4365 96.8726 101.112C97.8026 105.787 100.098 110.082 103.469 113.453C106.84 116.824 111.134 119.119 115.81 120.049C120.485 120.979 125.331 120.502 129.735 118.678C134.14 116.853 137.904 113.764 140.552 109.8C143.201 105.837 144.614 101.177 144.614 96.4098C144.614 90.0174 142.075 83.8869 137.555 79.3668C133.035 74.8467 126.904 72.3074 120.512 72.3074Z" fill="#cbd5e1"/>
</svg>
