<svg width="20" height="20" viewBox="0 0 1590 1590" fill="none" xmlns="http://www.w3.org/2000/svg">
<path d="M814.863 1457.34H808.239C717.387 1456.65 627.586 1437.84 544.096 1402.01C460.605 1366.18 385.102 1314.05 322.009 1248.68C205.012 1123.56 138.505 959.542 135.325 788.276C132.144 617.009 192.515 450.635 304.785 321.261C377.116 240.202 468.045 177.915 569.761 139.753C581.629 135.186 594.561 134.132 607.013 136.716C619.464 139.301 630.909 145.414 639.979 154.327C648.38 162.894 654.297 173.581 657.097 185.249C659.897 196.916 659.476 209.124 655.878 220.571C619.573 319.999 612.381 427.719 635.143 531.091C657.906 634.462 709.681 729.198 784.391 804.179C859.798 878.66 954.758 930.26 1058.28 953.003C1161.8 975.747 1269.64 968.705 1369.32 932.693C1381.19 928.516 1394 927.804 1406.25 930.639C1418.51 933.475 1429.7 939.741 1438.53 948.704C1447.35 957.668 1453.44 968.958 1456.08 981.256C1458.73 993.553 1457.82 1006.35 1453.45 1018.15C1419.61 1108.48 1366.75 1190.49 1298.44 1258.61C1234.9 1321.96 1159.47 1372.13 1076.49 1406.24C993.496 1440.34 904.586 1457.71 814.863 1457.34ZM494.243 325.899C460.967 349.236 430.512 376.357 403.489 406.716C312.373 511.126 263.278 645.653 265.726 784.208C268.174 922.762 321.99 1055.47 416.737 1156.6C467.648 1209.47 528.641 1251.6 596.112 1280.5C663.584 1309.4 736.164 1324.49 809.564 1324.86H814.863C902.715 1324.81 989.289 1303.81 1067.4 1263.6C1145.51 1223.39 1212.91 1165.13 1264 1093.67C1159.88 1107.16 1054.07 1096.6 954.666 1062.82C855.268 1029.04 764.934 972.923 690.604 898.785C616.275 824.647 559.926 734.459 525.886 635.148C491.846 535.837 481.022 430.045 494.243 325.899Z" fill="#cbd5e1"/>
</svg>
