<svg width="20" height="20" viewBox="0 0 1590 1590" fill="none" xmlns="http://www.w3.org/2000/svg">
<path d="M794.927 0C816.009 0 836.229 8.37509 851.136 23.2829C866.044 38.1906 874.419 58.4099 874.419 79.4927V158.985C874.419 180.068 866.044 200.287 851.136 215.195C836.229 230.103 816.009 238.478 794.927 238.478C773.844 238.478 753.625 230.103 738.717 215.195C723.809 200.287 715.434 180.068 715.434 158.985V79.4927C715.434 58.4099 723.809 38.1906 738.717 23.2829C753.625 8.37509 773.844 0 794.927 0ZM1357.02 232.834C1371.92 247.741 1380.29 267.957 1380.29 289.035C1380.29 310.114 1371.92 330.33 1357.02 345.237L1300.82 401.438C1293.48 409.03 1284.71 415.086 1275.01 419.252C1265.32 423.418 1254.89 425.611 1244.33 425.703C1233.78 425.795 1223.31 423.783 1213.54 419.787C1203.77 415.79 1194.89 409.887 1187.43 402.423C1179.97 394.959 1174.06 386.084 1170.07 376.315C1166.07 366.545 1164.06 356.078 1164.15 345.523C1164.24 334.968 1166.43 324.537 1170.6 314.838C1174.77 305.14 1180.82 296.368 1188.42 289.035L1244.62 232.834C1259.52 217.931 1279.74 209.56 1300.82 209.56C1321.9 209.56 1342.11 217.931 1357.02 232.834ZM232.834 232.834C247.741 217.931 267.957 209.56 289.035 209.56C310.114 209.56 330.33 217.931 345.237 232.834L401.438 289.035C415.918 304.028 423.931 324.108 423.749 344.951C423.568 365.793 415.208 385.731 400.47 400.47C385.731 415.208 365.793 423.568 344.951 423.749C324.108 423.931 304.028 415.918 289.035 401.438L232.834 345.237C217.931 330.33 209.56 310.114 209.56 289.035C209.56 267.957 217.931 247.741 232.834 232.834ZM794.927 476.956C710.595 476.956 629.718 510.456 570.087 570.087C510.456 629.718 476.956 710.595 476.956 794.927C476.956 879.258 510.456 960.135 570.087 1019.77C629.718 1079.4 710.595 1112.9 794.927 1112.9C879.258 1112.9 960.135 1079.4 1019.77 1019.77C1079.4 960.135 1112.9 879.258 1112.9 794.927C1112.9 710.595 1079.4 629.718 1019.77 570.087C960.135 510.456 879.258 476.956 794.927 476.956ZM317.971 794.927C317.971 668.43 368.221 547.114 457.668 457.668C547.114 368.221 668.43 317.971 794.927 317.971C921.423 317.971 1042.74 368.221 1132.19 457.668C1221.63 547.114 1271.88 668.43 1271.88 794.927C1271.88 921.423 1221.63 1042.74 1132.19 1132.19C1042.74 1221.63 921.423 1271.88 794.927 1271.88C668.43 1271.88 547.114 1221.63 457.668 1132.19C368.221 1042.74 317.971 921.423 317.971 794.927ZM0 794.927C0 773.844 8.37509 753.625 23.2829 738.717C38.1906 723.809 58.4099 715.434 79.4927 715.434H158.985C180.068 715.434 200.287 723.809 215.195 738.717C230.103 753.625 238.478 773.844 238.478 794.927C238.478 816.009 230.103 836.229 215.195 851.136C200.287 866.044 180.068 874.419 158.985 874.419H79.4927C58.4099 874.419 38.1906 866.044 23.2829 851.136C8.37509 836.229 0 816.009 0 794.927ZM1351.38 794.927C1351.38 773.844 1359.75 753.625 1374.66 738.717C1389.57 723.809 1409.78 715.434 1430.87 715.434H1510.36C1531.44 715.434 1551.66 723.809 1566.57 738.717C1581.48 753.625 1589.85 773.844 1589.85 794.927C1589.85 816.009 1581.48 836.229 1566.57 851.136C1551.66 866.044 1531.44 874.419 1510.36 874.419H1430.87C1409.78 874.419 1389.57 866.044 1374.66 851.136C1359.75 836.229 1351.38 816.009 1351.38 794.927ZM289.035 1188.42C304.028 1173.93 324.108 1165.92 344.951 1166.1C365.793 1166.28 385.731 1174.64 400.47 1189.38C415.208 1204.12 423.568 1224.06 423.749 1244.9C423.931 1265.75 415.918 1285.83 401.438 1300.82L345.237 1357.02C330.244 1371.5 310.164 1379.51 289.321 1379.33C268.479 1379.15 248.541 1370.79 233.802 1356.05C219.064 1341.31 210.704 1321.37 210.522 1300.53C210.341 1279.69 218.354 1259.61 232.834 1244.62L289.035 1188.42ZM1188.42 1300.82C1173.93 1285.83 1165.92 1265.75 1166.1 1244.9C1166.28 1224.06 1174.64 1204.12 1189.38 1189.38C1204.12 1174.64 1224.06 1166.28 1244.9 1166.1C1265.75 1165.92 1285.83 1173.93 1300.82 1188.42L1357.02 1244.62C1371.5 1259.61 1379.51 1279.69 1379.33 1300.53C1379.15 1321.37 1370.79 1341.31 1356.05 1356.05C1341.31 1370.79 1321.37 1379.15 1300.53 1379.33C1279.69 1379.51 1259.61 1371.5 1244.62 1357.02L1188.42 1300.82ZM794.927 1351.38C816.009 1351.38 836.229 1359.75 851.136 1374.66C866.044 1389.57 874.419 1409.78 874.419 1430.87V1510.36C874.419 1531.44 866.044 1551.66 851.136 1566.57C836.229 1581.48 816.009 1589.85 794.927 1589.85C773.844 1589.85 753.625 1581.48 738.717 1566.57C723.809 1551.66 715.434 1531.44 715.434 1510.36V1430.87C715.434 1409.78 723.809 1389.57 738.717 1374.66C753.625 1359.75 773.844 1351.38 794.927 1351.38Z" fill="#cbd5e1"/>
</svg>
