<svg width="50" height="50" viewBox="0 0 227 227" fill="none" xmlns="http://www.w3.org/2000/svg">
<path d="M113.019 218.037C171.018 218.037 218.037 171.018 218.037 113.019C218.037 55.0185 171.018 8 113.019 8C55.0185 8 8 55.0185 8 113.019C8 171.018 55.0185 218.037 113.019 218.037Z" stroke="black" stroke-width="16" stroke-linecap="round" stroke-linejoin="round"/>
<path d="M137.523 186.532V166.967C137.785 163.716 137.335 160.448 136.199 157.381C135.065 154.313 133.273 151.515 130.942 149.175C152.926 146.788 176.03 138.676 176.03 101.455C176.028 91.9368 172.268 82.7839 165.528 75.8905C168.72 67.5635 168.494 58.3594 164.898 50.1901C164.898 50.1901 156.636 47.8042 137.523 60.2794C121.476 56.0448 104.562 56.0448 88.5143 60.2794C69.4009 47.8042 61.1394 50.1901 61.1394 50.1901C57.5433 58.3594 57.3177 67.5635 60.5092 75.8905C53.7189 82.8351 49.9551 92.0706 50.0074 101.659C50.0074 138.608 73.1115 146.72 95.0952 149.378C92.7921 151.696 91.0155 154.46 89.8816 157.491C88.7477 160.521 88.2819 163.749 88.5143 166.967V186.532" stroke="black" stroke-width="16" stroke-linecap="round" stroke-linejoin="round"/>
<path d="M88.5144 172.898C67.5106 179.532 50.0075 172.898 39.5056 152.447" stroke="black" stroke-width="16" stroke-linecap="round" stroke-linejoin="round"/>
</svg>
