<svg width="50" height="50" viewBox="0 0 234 234" fill="none" xmlns="http://www.w3.org/2000/svg">
<path d="M175 130.122V175H150.356V133.121C150.356 122.608 146.791 115.434 137.867 115.434C131.059 115.434 126.999 120.265 125.216 124.951C124.572 126.626 124.4 128.957 124.4 131.288V175H99.744C99.744 175 100.078 104.084 99.744 96.7401H124.4V107.823L124.239 108.078H124.4V107.823C127.678 102.482 133.519 94.8949 146.618 94.8949C162.833 94.8949 175 106.087 175 130.122ZM73.9495 59C65.52 59 60 64.851 60 72.5228C60 80.049 65.359 86.0578 73.6275 86.0578H73.7885C82.3905 86.0578 87.738 80.0368 87.738 72.5228C87.577 64.851 82.3905 59 73.9495 59ZM61.4605 175H86.1165V96.7401H61.4605V175Z" fill="black"/>
<circle cx="117" cy="117" r="109" stroke="black" stroke-width="16"/>
</svg>
